<?xml version="1.0" encoding="UTF-8" standalone="no"?>
<!DOCTYPE svg PUBLIC "-//W3C//DTD SVG 1.1//EN" "http://www.w3.org/Graphics/SVG/1.1/DTD/svg11.dtd">
<svg width="100%" height="100%" viewBox="0 0 1379 279" version="1.1" xmlns="http://www.w3.org/2000/svg" xmlns:xlink="http://www.w3.org/1999/xlink" xml:space="preserve" xmlns:serif="http://www.serif.com/" style="fill-rule:evenodd;clip-rule:evenodd;stroke-linejoin:round;stroke-miterlimit:2;">
    <g transform="matrix(1,0,0,1,-805.882321,-2031.928425)">
        <g transform="matrix(8.001345,0,0,8.001345,-6388.805813,-16617.794122)">
            <g transform="matrix(50,0,0,50,899.434876,2364.373539)">
                <path d="M0.242,-0.259C0.221,-0.282 0.201,-0.307 0.18,-0.332C0.159,-0.357 0.139,-0.382 0.118,-0.405C0.113,-0.412 0.106,-0.416 0.098,-0.416L0.094,-0.416C0.093,-0.416 0.09,-0.415 0.087,-0.414L0.074,-0.411C0.072,-0.41 0.07,-0.41 0.067,-0.41L0.058,-0.41C0.026,-0.41 0.01,-0.425 0.01,-0.454C0.01,-0.484 0.029,-0.499 0.068,-0.499C0.069,-0.499 0.073,-0.499 0.082,-0.498C0.091,-0.497 0.102,-0.496 0.117,-0.495C0.118,-0.495 0.12,-0.495 0.12,-0.494C0.121,-0.494 0.123,-0.494 0.124,-0.494C0.13,-0.493 0.136,-0.493 0.141,-0.493L0.155,-0.493C0.166,-0.493 0.181,-0.494 0.2,-0.496C0.219,-0.498 0.234,-0.499 0.247,-0.499C0.284,-0.499 0.302,-0.484 0.302,-0.454C0.302,-0.425 0.285,-0.41 0.25,-0.41L0.242,-0.41L0.307,-0.332L0.374,-0.41C0.373,-0.409 0.371,-0.409 0.37,-0.41C0.369,-0.41 0.369,-0.41 0.368,-0.41C0.335,-0.41 0.318,-0.425 0.318,-0.456C0.318,-0.466 0.321,-0.476 0.328,-0.485C0.335,-0.494 0.347,-0.499 0.366,-0.499C0.387,-0.499 0.407,-0.498 0.425,-0.496C0.443,-0.494 0.458,-0.493 0.469,-0.493C0.477,-0.493 0.486,-0.493 0.496,-0.494C0.506,-0.495 0.516,-0.496 0.525,-0.497C0.532,-0.498 0.538,-0.498 0.543,-0.498C0.549,-0.499 0.554,-0.499 0.557,-0.499C0.595,-0.499 0.614,-0.484 0.614,-0.454C0.614,-0.424 0.598,-0.409 0.566,-0.409C0.561,-0.409 0.556,-0.409 0.552,-0.41C0.549,-0.411 0.545,-0.412 0.541,-0.413L0.523,-0.417C0.513,-0.417 0.496,-0.403 0.472,-0.376L0.37,-0.259C0.394,-0.231 0.417,-0.204 0.44,-0.176C0.463,-0.149 0.486,-0.122 0.51,-0.094C0.516,-0.086 0.523,-0.082 0.53,-0.082C0.531,-0.082 0.533,-0.082 0.536,-0.083C0.539,-0.083 0.552,-0.085 0.555,-0.086C0.558,-0.086 0.562,-0.086 0.565,-0.086C0.598,-0.086 0.615,-0.072 0.615,-0.043C0.615,-0.012 0.596,0.004 0.559,0.004L0.551,0.004L0.513,-0.001C0.508,-0.002 0.501,-0.002 0.494,-0.003C0.487,-0.003 0.479,-0.003 0.47,-0.003C0.453,-0.003 0.436,-0.002 0.419,-0L0.385,0.004L0.374,0.004C0.333,0.004 0.313,-0.011 0.313,-0.04C0.313,-0.071 0.33,-0.086 0.364,-0.086C0.367,-0.086 0.371,-0.086 0.376,-0.086C0.38,-0.085 0.385,-0.085 0.39,-0.084L0.306,-0.186L0.216,-0.083C0.217,-0.083 0.217,-0.083 0.217,-0.084C0.218,-0.084 0.218,-0.084 0.219,-0.084C0.222,-0.085 0.226,-0.085 0.23,-0.086C0.233,-0.086 0.237,-0.086 0.24,-0.086C0.278,-0.086 0.297,-0.071 0.297,-0.04C0.297,-0.011 0.278,0.004 0.24,0.004L0.226,0.004L0.187,-0C0.168,-0.002 0.152,-0.003 0.139,-0.003C0.13,-0.003 0.117,-0.002 0.1,-0C0.089,0.001 0.079,0.002 0.071,0.003C0.063,0.004 0.056,0.004 0.051,0.004C0.014,0.004 -0.005,-0.011 -0.005,-0.042C-0.005,-0.071 0.012,-0.086 0.045,-0.086C0.048,-0.086 0.051,-0.086 0.054,-0.086C0.058,-0.085 0.061,-0.085 0.064,-0.084C0.067,-0.083 0.07,-0.083 0.073,-0.083L0.079,-0.083C0.086,-0.083 0.099,-0.094 0.118,-0.116L0.242,-0.259Z" style="fill:rgb(240,0,0);fill-rule:nonzero;"/>
            </g>
            <g transform="matrix(50,0,0,50,931.284876,2364.373539)">
                <path d="M0.022,-0.27C0.022,-0.301 0.04,-0.317 0.077,-0.317L0.227,-0.317C0.263,-0.317 0.281,-0.302 0.281,-0.271C0.281,-0.239 0.263,-0.223 0.227,-0.223L0.077,-0.223C0.04,-0.223 0.022,-0.239 0.022,-0.27Z" style="fill:rgb(105,105,105);fill-rule:nonzero;"/>
            </g>
            <g>
                <g transform="matrix(50,0,0,50,946.734876,2364.373539)">
                    <path d="M0.243,-0.516C0.28,-0.516 0.311,-0.509 0.336,-0.494C0.342,-0.513 0.357,-0.522 0.38,-0.522C0.411,-0.522 0.427,-0.507 0.427,-0.478C0.427,-0.477 0.427,-0.475 0.426,-0.474C0.426,-0.473 0.426,-0.47 0.426,-0.467C0.426,-0.464 0.425,-0.45 0.425,-0.447C0.424,-0.441 0.423,-0.435 0.422,-0.429C0.421,-0.423 0.421,-0.417 0.421,-0.412C0.421,-0.403 0.422,-0.393 0.424,-0.381C0.425,-0.374 0.426,-0.367 0.427,-0.361C0.428,-0.356 0.428,-0.351 0.428,-0.346C0.428,-0.313 0.412,-0.296 0.381,-0.296C0.35,-0.296 0.334,-0.31 0.333,-0.339L0.332,-0.371C0.331,-0.386 0.322,-0.4 0.304,-0.411C0.287,-0.421 0.266,-0.427 0.241,-0.427C0.217,-0.427 0.197,-0.421 0.18,-0.409C0.163,-0.397 0.155,-0.382 0.155,-0.363C0.155,-0.347 0.161,-0.334 0.174,-0.325C0.187,-0.315 0.203,-0.308 0.224,-0.304C0.233,-0.303 0.27,-0.297 0.279,-0.296C0.396,-0.28 0.455,-0.231 0.455,-0.15C0.455,-0.101 0.435,-0.061 0.396,-0.028C0.357,0.001 0.309,0.016 0.25,0.016C0.206,0.016 0.166,0.006 0.13,-0.014C0.127,0.011 0.111,0.024 0.082,0.024C0.048,0.024 0.031,0.007 0.031,-0.028C0.032,-0.038 0.034,-0.046 0.035,-0.052C0.036,-0.058 0.036,-0.063 0.037,-0.068C0.038,-0.073 0.038,-0.077 0.038,-0.083C0.039,-0.088 0.039,-0.095 0.039,-0.104C0.039,-0.111 0.038,-0.119 0.037,-0.128C0.037,-0.136 0.035,-0.144 0.034,-0.151C0.032,-0.16 0.031,-0.169 0.031,-0.178C0.031,-0.209 0.047,-0.224 0.078,-0.224C0.099,-0.224 0.112,-0.218 0.117,-0.207C0.122,-0.197 0.124,-0.179 0.125,-0.152C0.126,-0.129 0.138,-0.11 0.163,-0.095C0.187,-0.08 0.219,-0.073 0.258,-0.073C0.284,-0.073 0.305,-0.08 0.323,-0.092C0.339,-0.105 0.348,-0.122 0.348,-0.143C0.348,-0.178 0.319,-0.199 0.26,-0.205C0.225,-0.209 0.195,-0.214 0.168,-0.221C0.141,-0.227 0.119,-0.236 0.101,-0.246C0.083,-0.258 0.069,-0.272 0.06,-0.289C0.051,-0.306 0.046,-0.328 0.046,-0.354C0.046,-0.378 0.051,-0.4 0.06,-0.42C0.07,-0.44 0.084,-0.457 0.101,-0.471C0.118,-0.485 0.139,-0.496 0.163,-0.504C0.187,-0.512 0.214,-0.516 0.243,-0.516Z" style="fill:rgb(60,60,60);fill-rule:nonzero;"/>
                </g>
                <g transform="matrix(50,0,0,50,971.334876,2364.373539)">
                    <path d="M0.209,-0.288C0.232,-0.309 0.255,-0.33 0.277,-0.351C0.298,-0.372 0.321,-0.393 0.344,-0.414L0.346,-0.418C0.343,-0.417 0.33,-0.415 0.327,-0.414C0.322,-0.413 0.316,-0.412 0.311,-0.411C0.306,-0.41 0.301,-0.41 0.296,-0.41C0.263,-0.41 0.247,-0.425 0.247,-0.454C0.247,-0.485 0.266,-0.5 0.305,-0.5C0.308,-0.5 0.312,-0.5 0.316,-0.499C0.319,-0.499 0.323,-0.499 0.328,-0.498L0.333,-0.498C0.355,-0.495 0.374,-0.493 0.391,-0.492C0.407,-0.491 0.42,-0.491 0.431,-0.491C0.436,-0.491 0.457,-0.492 0.461,-0.492L0.503,-0.498C0.506,-0.499 0.51,-0.499 0.513,-0.499C0.516,-0.5 0.52,-0.5 0.524,-0.5C0.565,-0.5 0.586,-0.485 0.586,-0.455C0.586,-0.426 0.57,-0.411 0.538,-0.411C0.535,-0.411 0.531,-0.411 0.526,-0.412C0.521,-0.412 0.507,-0.414 0.503,-0.415C0.499,-0.415 0.496,-0.415 0.495,-0.415C0.484,-0.415 0.471,-0.408 0.456,-0.395L0.357,-0.304L0.358,-0.304L0.352,-0.298C0.352,-0.297 0.352,-0.296 0.352,-0.296C0.353,-0.297 0.354,-0.295 0.357,-0.292C0.376,-0.267 0.459,-0.159 0.478,-0.134L0.477,-0.135C0.506,-0.099 0.524,-0.081 0.531,-0.081L0.543,-0.082C0.546,-0.083 0.549,-0.083 0.552,-0.084C0.555,-0.085 0.559,-0.085 0.564,-0.085C0.597,-0.085 0.614,-0.071 0.614,-0.042C0.614,-0.011 0.594,0.004 0.555,0.004C0.549,0.004 0.541,0.004 0.532,0.003C0.523,0.002 0.513,0.001 0.502,-0C0.491,-0.001 0.481,-0.002 0.473,-0.003C0.465,-0.004 0.458,-0.004 0.453,-0.004C0.448,-0.004 0.443,-0.004 0.436,-0.003C0.429,-0.002 0.421,-0.001 0.411,-0L0.412,-0C0.403,0.001 0.394,0.002 0.387,0.003C0.379,0.004 0.372,0.004 0.366,0.004C0.331,0.004 0.314,-0.011 0.314,-0.042C0.314,-0.071 0.331,-0.085 0.364,-0.085C0.375,-0.085 0.381,-0.085 0.383,-0.084C0.384,-0.084 0.384,-0.084 0.384,-0.084C0.384,-0.083 0.384,-0.083 0.385,-0.083L0.374,-0.101C0.359,-0.122 0.343,-0.143 0.327,-0.165C0.31,-0.186 0.294,-0.207 0.279,-0.227L0.28,-0.226L0.276,-0.232C0.276,-0.232 0.275,-0.231 0.274,-0.228L0.209,-0.171L0.209,-0.117C0.209,-0.108 0.21,-0.102 0.211,-0.098C0.212,-0.087 0.216,-0.082 0.221,-0.082C0.226,-0.082 0.23,-0.082 0.233,-0.083C0.236,-0.084 0.24,-0.084 0.242,-0.085C0.245,-0.085 0.25,-0.085 0.255,-0.085C0.287,-0.085 0.303,-0.07 0.303,-0.041C0.303,-0.011 0.286,0.004 0.251,0.004C0.245,0.004 0.238,0.004 0.229,0.003C0.22,0.002 0.211,0.001 0.2,-0C0.189,-0.001 0.179,-0.003 0.172,-0.004C0.164,-0.004 0.157,-0.005 0.152,-0.005C0.145,-0.005 0.138,-0.005 0.13,-0.004C0.122,-0.003 0.113,-0.002 0.104,-0.001C0.092,0 0.082,0.002 0.074,0.003C0.066,0.004 0.059,0.004 0.054,0.004C0.019,0.004 0.001,-0.011 0.001,-0.041C0.001,-0.07 0.018,-0.085 0.053,-0.085C0.056,-0.085 0.06,-0.085 0.063,-0.085C0.066,-0.084 0.07,-0.084 0.073,-0.083C0.078,-0.082 0.083,-0.081 0.086,-0.081L0.092,-0.081C0.097,-0.081 0.1,-0.089 0.101,-0.104L0.104,-0.141L0.104,-0.523C0.103,-0.557 0.101,-0.577 0.098,-0.583C0.097,-0.586 0.095,-0.588 0.094,-0.588C0.092,-0.588 0.089,-0.588 0.086,-0.587C0.085,-0.587 0.084,-0.587 0.083,-0.587C0.082,-0.586 0.08,-0.586 0.079,-0.586C0.074,-0.584 0.069,-0.583 0.064,-0.583C0.059,-0.582 0.054,-0.582 0.049,-0.582C0.018,-0.582 0.002,-0.596 0.002,-0.624C0.002,-0.655 0.02,-0.67 0.055,-0.67L0.073,-0.67C0.078,-0.67 0.081,-0.67 0.084,-0.669L0.083,-0.669C0.096,-0.667 0.105,-0.666 0.11,-0.666C0.111,-0.666 0.114,-0.666 0.12,-0.667C0.126,-0.668 0.131,-0.668 0.134,-0.669C0.139,-0.67 0.143,-0.67 0.146,-0.67C0.149,-0.671 0.153,-0.671 0.156,-0.671L0.163,-0.671C0.194,-0.671 0.209,-0.653 0.209,-0.618L0.209,-0.288Z" style="fill:rgb(60,60,60);fill-rule:nonzero;"/>
                </g>
                <g transform="matrix(50,0,0,50,1002.284876,2364.373539)">
                    <path d="M0.211,-0.328L0.211,-0.129C0.211,-0.12 0.211,-0.113 0.212,-0.11C0.214,-0.09 0.217,-0.08 0.221,-0.08C0.22,-0.08 0.222,-0.08 0.226,-0.081C0.23,-0.082 0.235,-0.083 0.241,-0.084L0.24,-0.083C0.242,-0.084 0.245,-0.084 0.247,-0.085C0.251,-0.086 0.254,-0.086 0.259,-0.086C0.294,-0.086 0.311,-0.071 0.311,-0.042C0.311,-0.029 0.305,-0.018 0.294,-0.009C0.284,-0 0.27,0.004 0.253,0.004C0.248,0.004 0.241,0.004 0.233,0.003C0.225,0.002 0.216,0.001 0.205,-0C0.195,-0.001 0.186,-0.003 0.179,-0.004C0.172,-0.004 0.166,-0.005 0.161,-0.005C0.154,-0.005 0.145,-0.005 0.137,-0.004C0.128,-0.003 0.118,-0.002 0.108,-0.001C0.096,0 0.086,0.002 0.077,0.003C0.069,0.004 0.062,0.004 0.057,0.004C0.021,0.004 0.003,-0.011 0.003,-0.042C0.003,-0.071 0.019,-0.086 0.052,-0.086C0.053,-0.086 0.057,-0.086 0.064,-0.085C0.07,-0.084 0.075,-0.084 0.079,-0.083C0.084,-0.082 0.087,-0.081 0.09,-0.081L0.096,-0.081C0.101,-0.081 0.105,-0.097 0.107,-0.129L0.107,-0.37C0.105,-0.401 0.101,-0.417 0.095,-0.417C0.094,-0.417 0.091,-0.417 0.088,-0.416C0.085,-0.415 0.081,-0.414 0.076,-0.413C0.073,-0.412 0.069,-0.411 0.065,-0.411C0.06,-0.41 0.057,-0.41 0.054,-0.41C0.02,-0.41 0.003,-0.425 0.003,-0.454C0.003,-0.484 0.022,-0.499 0.061,-0.499L0.079,-0.499C0.084,-0.499 0.087,-0.499 0.089,-0.498C0.098,-0.497 0.106,-0.496 0.113,-0.495C0.119,-0.494 0.123,-0.494 0.125,-0.494C0.126,-0.494 0.129,-0.494 0.134,-0.494C0.138,-0.495 0.172,-0.499 0.172,-0.499C0.201,-0.499 0.215,-0.482 0.215,-0.449L0.215,-0.435C0.214,-0.432 0.214,-0.43 0.214,-0.428L0.214,-0.425C0.213,-0.423 0.213,-0.414 0.213,-0.397C0.213,-0.392 0.212,-0.372 0.212,-0.367C0.211,-0.354 0.211,-0.341 0.211,-0.328ZM0.145,-0.523C0.126,-0.523 0.109,-0.529 0.096,-0.542C0.083,-0.555 0.076,-0.57 0.076,-0.589C0.076,-0.608 0.083,-0.623 0.096,-0.636C0.109,-0.648 0.126,-0.654 0.145,-0.654C0.164,-0.654 0.181,-0.648 0.195,-0.636C0.208,-0.623 0.215,-0.608 0.215,-0.589C0.215,-0.57 0.208,-0.555 0.195,-0.542C0.181,-0.529 0.164,-0.523 0.145,-0.523Z" style="fill:rgb(60,60,60);fill-rule:nonzero;"/>
                </g>
                <g transform="matrix(50,0,0,50,1017.784876,2364.373539)">
                    <path d="M0.206,-0.115C0.207,-0.092 0.21,-0.08 0.215,-0.08C0.216,-0.08 0.218,-0.08 0.22,-0.081C0.221,-0.081 0.223,-0.081 0.225,-0.082C0.226,-0.082 0.228,-0.082 0.231,-0.083C0.232,-0.083 0.234,-0.083 0.235,-0.084C0.236,-0.084 0.238,-0.084 0.239,-0.084C0.24,-0.084 0.241,-0.084 0.241,-0.085C0.241,-0.085 0.242,-0.085 0.243,-0.085C0.244,-0.086 0.246,-0.086 0.248,-0.086L0.254,-0.086C0.285,-0.086 0.301,-0.071 0.301,-0.041C0.301,-0.011 0.283,0.004 0.246,0.004C0.241,0.004 0.234,0.004 0.226,0.003C0.217,0.002 0.207,0.001 0.196,-0C0.185,-0.001 0.176,-0.002 0.168,-0.003C0.159,-0.004 0.152,-0.004 0.147,-0.004C0.142,-0.004 0.136,-0.004 0.129,-0.003C0.122,-0.002 0.113,-0.001 0.103,-0C0.094,0.001 0.085,0.002 0.077,0.003C0.069,0.004 0.062,0.004 0.057,0.004L0.052,0.004C0.015,0.004 -0.004,-0.012 -0.004,-0.044C-0.004,-0.072 0.012,-0.086 0.045,-0.086L0.055,-0.086C0.058,-0.085 0.06,-0.085 0.063,-0.085C0.071,-0.084 0.077,-0.083 0.08,-0.082C0.083,-0.081 0.086,-0.081 0.087,-0.081C0.09,-0.081 0.092,-0.083 0.093,-0.086C0.094,-0.091 0.095,-0.099 0.096,-0.111C0.097,-0.123 0.097,-0.139 0.098,-0.159C0.098,-0.17 0.099,-0.214 0.099,-0.225L0.102,-0.372L0.102,-0.41C0.102,-0.425 0.102,-0.44 0.102,-0.456C0.101,-0.472 0.101,-0.487 0.101,-0.502L0.101,-0.54L0.098,-0.578C0.097,-0.58 0.095,-0.582 0.093,-0.584C0.091,-0.586 0.089,-0.587 0.087,-0.587C0.086,-0.587 0.078,-0.586 0.063,-0.583C0.06,-0.582 0.057,-0.582 0.054,-0.582L0.046,-0.582C0.013,-0.582 -0.003,-0.596 -0.003,-0.625C-0.003,-0.655 0.015,-0.67 0.051,-0.67L0.062,-0.67C0.067,-0.67 0.07,-0.67 0.072,-0.669L0.092,-0.666C0.093,-0.666 0.095,-0.666 0.096,-0.665C0.097,-0.665 0.099,-0.665 0.1,-0.665C0.103,-0.664 0.106,-0.664 0.11,-0.664L0.118,-0.664C0.119,-0.664 0.122,-0.664 0.128,-0.664C0.133,-0.665 0.138,-0.666 0.143,-0.667C0.149,-0.668 0.154,-0.669 0.16,-0.67C0.165,-0.671 0.17,-0.671 0.175,-0.671C0.2,-0.671 0.212,-0.657 0.212,-0.63C0.212,-0.626 0.212,-0.623 0.212,-0.621C0.213,-0.619 0.212,-0.617 0.211,-0.614C0.207,-0.565 0.205,-0.496 0.205,-0.409L0.206,-0.115Z" style="fill:rgb(60,60,60);fill-rule:nonzero;"/>
                </g>
                <g transform="matrix(50,0,0,50,1033.234876,2364.373539)">
                    <path d="M0.206,-0.115C0.207,-0.092 0.21,-0.08 0.215,-0.08C0.216,-0.08 0.218,-0.08 0.22,-0.081C0.221,-0.081 0.223,-0.081 0.225,-0.082C0.226,-0.082 0.228,-0.082 0.231,-0.083C0.232,-0.083 0.234,-0.083 0.235,-0.084C0.236,-0.084 0.238,-0.084 0.239,-0.084C0.24,-0.084 0.241,-0.084 0.241,-0.085C0.241,-0.085 0.242,-0.085 0.243,-0.085C0.244,-0.086 0.246,-0.086 0.248,-0.086L0.254,-0.086C0.285,-0.086 0.301,-0.071 0.301,-0.041C0.301,-0.011 0.283,0.004 0.246,0.004C0.241,0.004 0.234,0.004 0.226,0.003C0.217,0.002 0.207,0.001 0.196,-0C0.185,-0.001 0.176,-0.002 0.168,-0.003C0.159,-0.004 0.152,-0.004 0.147,-0.004C0.142,-0.004 0.136,-0.004 0.129,-0.003C0.122,-0.002 0.113,-0.001 0.103,-0C0.094,0.001 0.085,0.002 0.077,0.003C0.069,0.004 0.062,0.004 0.057,0.004L0.052,0.004C0.015,0.004 -0.004,-0.012 -0.004,-0.044C-0.004,-0.072 0.012,-0.086 0.045,-0.086L0.055,-0.086C0.058,-0.085 0.06,-0.085 0.063,-0.085C0.071,-0.084 0.077,-0.083 0.08,-0.082C0.083,-0.081 0.086,-0.081 0.087,-0.081C0.09,-0.081 0.092,-0.083 0.093,-0.086C0.094,-0.091 0.095,-0.099 0.096,-0.111C0.097,-0.123 0.097,-0.139 0.098,-0.159C0.098,-0.17 0.099,-0.214 0.099,-0.225L0.102,-0.372L0.102,-0.41C0.102,-0.425 0.102,-0.44 0.102,-0.456C0.101,-0.472 0.101,-0.487 0.101,-0.502L0.101,-0.54L0.098,-0.578C0.097,-0.58 0.095,-0.582 0.093,-0.584C0.091,-0.586 0.089,-0.587 0.087,-0.587C0.086,-0.587 0.078,-0.586 0.063,-0.583C0.06,-0.582 0.057,-0.582 0.054,-0.582L0.046,-0.582C0.013,-0.582 -0.003,-0.596 -0.003,-0.625C-0.003,-0.655 0.015,-0.67 0.051,-0.67L0.062,-0.67C0.067,-0.67 0.07,-0.67 0.072,-0.669L0.092,-0.666C0.093,-0.666 0.095,-0.666 0.096,-0.665C0.097,-0.665 0.099,-0.665 0.1,-0.665C0.103,-0.664 0.106,-0.664 0.11,-0.664L0.118,-0.664C0.119,-0.664 0.122,-0.664 0.128,-0.664C0.133,-0.665 0.138,-0.666 0.143,-0.667C0.149,-0.668 0.154,-0.669 0.16,-0.67C0.165,-0.671 0.17,-0.671 0.175,-0.671C0.2,-0.671 0.212,-0.657 0.212,-0.63C0.212,-0.626 0.212,-0.623 0.212,-0.621C0.213,-0.619 0.212,-0.617 0.211,-0.614C0.207,-0.565 0.205,-0.496 0.205,-0.409L0.206,-0.115Z" style="fill:rgb(60,60,60);fill-rule:nonzero;"/>
                </g>
                <g transform="matrix(50,0,0,50,1048.684876,2364.373539)">
                    <path d="M0.243,-0.516C0.28,-0.516 0.311,-0.509 0.336,-0.494C0.342,-0.513 0.357,-0.522 0.38,-0.522C0.411,-0.522 0.427,-0.507 0.427,-0.478C0.427,-0.477 0.427,-0.475 0.426,-0.474C0.426,-0.473 0.426,-0.47 0.426,-0.467C0.426,-0.464 0.425,-0.45 0.425,-0.447C0.424,-0.441 0.423,-0.435 0.422,-0.429C0.421,-0.423 0.421,-0.417 0.421,-0.412C0.421,-0.403 0.422,-0.393 0.424,-0.381C0.425,-0.374 0.426,-0.367 0.427,-0.361C0.428,-0.356 0.428,-0.351 0.428,-0.346C0.428,-0.313 0.412,-0.296 0.381,-0.296C0.35,-0.296 0.334,-0.31 0.333,-0.339L0.332,-0.371C0.331,-0.386 0.322,-0.4 0.304,-0.411C0.287,-0.421 0.266,-0.427 0.241,-0.427C0.217,-0.427 0.197,-0.421 0.18,-0.409C0.163,-0.397 0.155,-0.382 0.155,-0.363C0.155,-0.347 0.161,-0.334 0.174,-0.325C0.187,-0.315 0.203,-0.308 0.224,-0.304C0.233,-0.303 0.27,-0.297 0.279,-0.296C0.396,-0.28 0.455,-0.231 0.455,-0.15C0.455,-0.101 0.435,-0.061 0.396,-0.028C0.357,0.001 0.309,0.016 0.25,0.016C0.206,0.016 0.166,0.006 0.13,-0.014C0.127,0.011 0.111,0.024 0.082,0.024C0.048,0.024 0.031,0.007 0.031,-0.028C0.032,-0.038 0.034,-0.046 0.035,-0.052C0.036,-0.058 0.036,-0.063 0.037,-0.068C0.038,-0.073 0.038,-0.077 0.038,-0.083C0.039,-0.088 0.039,-0.095 0.039,-0.104C0.039,-0.111 0.038,-0.119 0.037,-0.128C0.037,-0.136 0.035,-0.144 0.034,-0.151C0.032,-0.16 0.031,-0.169 0.031,-0.178C0.031,-0.209 0.047,-0.224 0.078,-0.224C0.099,-0.224 0.112,-0.218 0.117,-0.207C0.122,-0.197 0.124,-0.179 0.125,-0.152C0.126,-0.129 0.138,-0.11 0.163,-0.095C0.187,-0.08 0.219,-0.073 0.258,-0.073C0.284,-0.073 0.305,-0.08 0.323,-0.092C0.339,-0.105 0.348,-0.122 0.348,-0.143C0.348,-0.178 0.319,-0.199 0.26,-0.205C0.225,-0.209 0.195,-0.214 0.168,-0.221C0.141,-0.227 0.119,-0.236 0.101,-0.246C0.083,-0.258 0.069,-0.272 0.06,-0.289C0.051,-0.306 0.046,-0.328 0.046,-0.354C0.046,-0.378 0.051,-0.4 0.06,-0.42C0.07,-0.44 0.084,-0.457 0.101,-0.471C0.118,-0.485 0.139,-0.496 0.163,-0.504C0.187,-0.512 0.214,-0.516 0.243,-0.516Z" style="fill:rgb(60,60,60);fill-rule:nonzero;"/>
                </g>
            </g>
        </g>
    </g>
</svg>
